<svg width="313" height="318" viewBox="0 0 313 318" fill="none" xmlns="http://www.w3.org/2000/svg">
<g clip-path="url(#clip0_2_2)">
<path d="M38.061 260.277C41.1754 263.93 44.4609 267.434 47.9066 270.777C59.5211 282.209 73.3715 291.817 88.2298 299.084C93.7044 301.648 98.754 304.304 104.67 306.59C106.149 307.158 107.659 307.766 109.246 308.314C110.847 308.821 112.507 309.328 114.242 309.83C115.967 310.37 117.807 310.753 119.73 311.151C121.655 311.537 123.654 311.979 125.801 312.199C115.151 309.954 104.771 306.581 94.8349 302.137C84.8374 297.627 75.3379 292.086 66.4908 285.604C48.7717 272.623 33.6161 255.958 22.5459 236.906C22.089 236.337 21.3952 235.252 20.5637 233.869L19.2265 231.605L17.8776 228.999C16.9805 227.192 15.9474 225.357 15.1562 223.58C14.4467 222.026 13.7041 220.487 12.9287 218.964C16.3691 227.533 20.3402 235.028 24.7868 242.156C26.835 245.425 29.0029 248.617 31.2862 251.726C30.9636 251.291 30.6277 250.868 30.3068 250.431C32.7536 253.801 35.3313 257.074 38.0341 260.243L38.061 260.277V260.277ZM30.3034 250.429L30.0935 250.144L30.3034 250.429ZM2.24319 178.135L1.43182 171.626C1.86187 175.599 2.36078 180.038 3.27294 184.483L2.72363 181.327C2.52087 180.27 2.3606 179.205 2.24319 178.135V178.135ZM144.152 311.739C155.326 312.869 167.045 312.532 178.523 310.716C190.009 308.907 201.242 305.698 211.685 301.562C192.451 309.127 172.038 312.491 152.068 311.929C149.395 311.887 146.761 311.929 144.152 311.739V311.739Z" fill="url(#paint0_linear_2_2)"/>
<path d="M77.9894 288.879L77.5543 288.602C77.7005 288.695 77.8432 288.789 77.9894 288.879ZM94.2016 297.811C103.409 302.095 113.053 305.371 122.966 307.581C106.691 303.869 91.3761 297.319 77.9894 288.879C83.1297 292.15 88.5338 295.177 94.2016 297.811ZM297.338 179.902C297.502 177.248 297.835 174.463 297.919 173.138C298.917 164.619 299.212 157.345 299.17 150.048C298.986 148.733 298.457 146.268 298.247 143.466C297.99 140.658 297.612 137.908 297.292 135.195C296.807 132.505 296.389 129.843 295.858 127.232C299.679 146.747 299.616 166.338 296.1 184.821C296.486 183.175 296.899 181.535 297.338 179.902V179.902Z" fill="url(#paint1_linear_2_2)"/>
<path d="M1.49061 140.238C2.91513 128.647 5.94726 117.348 8.83157 109.821L7.66407 115.331C8.38473 113.716 9.54886 109.965 11.1363 105.996L12.282 102.968L13.5469 100.034C14.3868 98.1339 15.0924 96.3331 15.8366 94.9522C15.3276 96.2474 14.837 97.6434 14.2457 99.0444C13.6662 100.45 13.0161 101.878 12.3962 103.315L14.9395 97.5879C12.3734 104.016 10.1643 110.582 8.32257 117.254C6.4193 124.565 4.91415 132.248 4.10446 139.146C3.86928 140.866 3.78697 142.546 3.63411 144.148C3.52156 145.751 3.32669 147.28 3.31157 148.724C3.24102 151.612 3.14359 154.14 3.1923 156.163C3.36869 160.209 3.61227 162.227 3.96336 161.1C4.65378 158.861 4.64034 147.345 7.04924 132.934C8.33769 125.751 10.1872 117.872 12.6969 110.153C15.1881 102.428 18.4538 94.9371 21.8353 88.3286L20.8408 90.499L19.9253 92.7348L18.0506 97.2553L16.3304 101.925L15.4552 104.28C15.1982 105.08 14.9378 105.883 14.6808 106.689C12.4634 113.085 10.8054 119.819 9.36072 126.607L8.42168 131.734C8.07731 133.438 7.93117 135.171 7.67583 136.886C7.14164 140.315 6.94677 143.769 6.64944 147.182C6.31515 154.026 6.24795 160.786 6.86782 167.25C6.84262 165.714 6.81743 164.35 6.83926 163.03L7.03245 159.074C7.11308 157.715 7.09796 156.274 7.22563 154.622C7.34322 152.971 7.45073 151.11 7.5448 148.907C8.20162 137.807 10.1855 126.817 13.2697 116.182C16.2095 105.502 19.6767 96.0962 24.8422 87.5743L26.1878 85.0109C27.0983 83.2907 27.8559 81.5941 28.8184 79.8638C29.9154 77.9656 30.9653 76.5444 31.8153 75.2425C32.6905 73.9541 33.433 72.8219 34.283 71.7232L40.4682 63.1862C40.5942 63.1711 40.4313 63.497 40.1322 63.9808C41.1521 62.5275 42.2506 61.1312 43.4231 59.798C44.6914 58.3281 45.9227 56.7692 46.9659 55.4824C47.2111 55.4707 47.4497 55.464 48.0124 55.0608C62.5432 39.6112 80.4252 27.0207 100.577 19.0834L105.057 17.338L109.592 15.8279L111.848 15.0753L114.133 14.4369L118.685 13.172C121.289 12.5454 123.927 11.9104 126.616 11.3393L130.71 10.6237C132.086 10.3868 133.468 10.1197 134.883 9.98869C137.695 9.65104 140.147 8.93878 141.469 8.76408C148.809 8.34579 156.134 8.42979 164.734 9.12693C165.401 9.13869 166.439 9.19916 167.643 9.26467C168.848 9.33355 170.225 9.36715 171.561 9.48977C173.126 9.84254 174.798 10.192 176.551 10.533C187.25 12.1927 197.595 15.1593 207.437 19.1052L207.425 19.0582L211.195 20.56L215.042 22.3373C217.681 23.4863 220.266 24.9562 222.937 26.3404C224.278 27.0241 225.548 27.859 226.865 28.6149C228.158 29.4111 229.512 30.1167 230.762 30.9868C233.295 32.6701 235.864 34.281 238.23 36.0802C242.047 38.834 245.746 41.7472 249.318 44.812C249.395 44.8826 249.475 44.9481 249.553 45.017L249.623 45.0808L252.071 47.3016L254.413 49.6382L256.756 51.9766C257.532 52.7611 258.251 53.601 259.002 54.4107C258.639 53.8227 258.652 53.5859 258.666 53.3524C257.508 52.2437 256.139 50.9317 254.787 49.6399C257.043 51.6927 259.012 53.5489 260.628 55.0642C261.251 55.8604 261.932 56.6432 262.577 57.4983L264.569 60.1289L266.687 62.8654L268.795 65.8085C272.535 70.5759 275.836 75.6759 278.97 80.8768C280.422 83.5444 282.023 86.1364 283.314 88.8964L285.352 92.9885L287.186 97.1831C287.714 98.0784 287.509 97.22 287.574 97.0689C289.632 102.045 291.287 107.219 292.785 112.433C295.65 121.856 297.568 131.541 298.51 141.345C298.888 143.66 299.05 146.001 299.384 148.321L299.177 153.233C299.176 155.086 299.273 156.939 299.194 158.795L298.979 164.382C298.952 165.642 298.771 167.018 298.665 168.513C298.524 170.005 298.45 171.614 298.235 173.311L297.543 178.673C297.321 180.552 296.893 182.484 296.563 184.503C294.924 193.37 292.5 202.073 289.32 210.511C288.913 211.899 288.603 213.007 288.325 213.627C287.272 216.149 286.148 218.589 285.063 220.993C283.849 223.335 282.735 225.677 281.49 227.894C277.64 235.194 273.173 242.151 268.137 248.689C267.572 249.426 267.047 250.176 266.479 250.868L264.802 252.894C263.694 254.202 262.703 255.511 261.651 256.646C259.549 258.918 257.786 261.024 256.131 262.608C254.236 264.587 254.406 264.679 255.718 263.725C256.639 263.045 257.539 262.338 258.419 261.605L261.984 258.39C263.287 257.253 264.535 255.969 265.738 254.76C266.927 253.542 268.117 252.432 269.034 251.427C270.883 249.426 272.098 248.192 271.839 248.741C268.854 254.36 263.418 261.291 255.472 268.958C251.419 272.699 246.858 276.764 241.464 280.683C238.834 282.734 235.909 284.611 232.927 286.66C229.846 288.547 226.698 290.613 223.256 292.447C215.724 296.55 228.909 289.97 229.265 289.907C227.993 290.909 226.66 291.829 225.272 292.662C222.789 293.983 220.328 295.345 217.756 296.481C216.253 297.171 214.776 297.917 213.256 298.562L208.672 300.447L211.098 299.493C216.056 297.522 220.691 295.201 224.876 292.904C223.303 293.855 221.583 294.955 219.698 295.948C217.677 296.993 215.586 298.135 213.488 299.155L207.398 301.987C229.183 294.074 249.202 280.977 265.049 263.905C272.983 255.395 280.059 246.047 285.827 235.934C291.632 225.842 296.301 215.138 299.75 204.018C294.452 220.699 286.192 236.023 276.264 248.98C294.312 224.61 305.073 194.732 306.5 163.919C306.498 165.617 306.33 167.309 306.217 169C306.078 170.692 306.011 172.39 305.813 174.077C305.381 177.445 305.072 180.831 304.423 184.171C303.375 190.89 301.675 197.494 299.75 204.018C303.55 192.224 305.819 179.788 306.713 167.282C307.644 154.765 306.868 142.173 304.937 129.97C308.253 146.134 308.803 164.448 305.977 182.546C307.963 170.873 308.467 158.84 307.704 146.91C307.533 142.353 306.995 137.827 306.553 133.638C305.92 129.478 305.441 125.638 304.828 122.532C307.256 133.999 308.213 143.779 308.68 152.998C308.232 132.878 304.064 112.493 295.88 93.3446C300.346 103.745 304.013 114.932 306.253 126.434C308.504 137.925 309.439 149.68 308.907 160.989C308.882 159.665 308.937 158.343 308.86 157.014L308.68 152.998C309.162 171.224 306.355 189.289 300.792 206.278C298 214.771 294.551 223.024 290.376 230.877C286.21 238.719 281.401 246.201 275.997 253.246C282.167 246.04 288.681 235.853 293.881 224.664C299.056 213.451 302.898 201.324 305.54 190.732C301.653 209.752 293.938 228.519 282.743 245.279C271.579 262.052 256.956 276.8 240.036 288.118C223.137 299.473 203.963 307.331 184.287 311.213C174.517 313.153 164.586 314.171 154.626 314.252C144.847 314.304 135.084 313.452 125.462 311.707L130.51 312.666C132.193 312.985 133.9 313.162 135.593 313.414C138.98 313.958 142.405 314.163 145.818 314.477C152.661 314.862 159.539 314.991 166.397 314.469C173.266 314.104 180.091 313.079 186.884 311.828C190.254 311.062 193.664 310.435 196.992 309.453C198.662 308.986 200.351 308.577 202.01 308.058L206.973 306.449C204.467 307.225 201.83 308.253 199.013 309.007L195.483 310.046C202.89 308.071 210.139 305.546 217.17 302.493C220.387 301.09 223.553 299.574 226.663 297.949C220.836 301.04 214.825 303.773 208.665 306.133C196.919 310.517 184.712 313.55 172.279 315.174C170.415 315.47 168.715 315.562 167.191 315.722L163.113 316.125C160.712 316.315 158.94 316.4 157.7 316.536C155.219 316.783 154.866 317.014 155.854 317.203C156.84 317.393 159.165 317.544 162.024 317.625C164.875 317.608 168.256 317.455 171.332 317.175C202.236 314.005 230.611 301.876 253.349 283.719C276.103 265.558 293.53 241.434 303.242 214.06C303.852 212.471 304.321 210.832 304.828 209.206C305.32 207.575 305.865 205.96 306.31 204.314C307.135 201.005 308.111 197.734 308.742 194.374L309.782 189.36L310.6 184.3L311.005 181.769L311.294 179.22L311.868 174.124C313.041 160.493 312.577 146.717 310.504 133.197C309.396 125.547 307.447 116.464 304.936 108.374L303.004 102.522C302.332 100.662 301.618 98.9083 300.983 97.2587L300.047 94.8817L299.088 92.7466L297.44 89.1786C292.176 78.4964 285.56 68.3081 277.816 58.8321C270.08 49.3527 261.192 40.5754 251.172 32.9321L247.402 30.0713L243.493 27.3701L241.535 26.0162L239.514 24.7462L235.454 22.213C229.919 19.0145 224.249 15.932 218.272 13.3753C212.357 10.6909 206.167 8.5121 199.866 6.56347C196.683 5.68995 193.514 4.71563 190.251 4.04537C188.624 3.69428 187.012 3.2676 185.367 2.97363L180.422 2.09843C168.596 0.0170887 156.294 -0.478468 144.004 0.445451C131.721 1.39457 119.386 3.7262 107.558 7.75113L103.132 9.28483C101.652 9.78375 100.226 10.4305 98.7692 10.9966C97.3279 11.5997 95.8546 12.1271 94.4402 12.7924L90.1868 14.7628C88.7556 15.3945 87.373 16.1201 85.9939 16.8542L81.8463 19.033L77.8113 21.405C76.4674 22.1979 75.1135 22.9723 73.8267 23.8542L69.9227 26.421C68.6091 27.2559 67.3929 28.2319 66.1246 29.1289C64.8798 30.0596 63.588 30.9264 62.3852 31.9074L58.7618 34.8253C57.5372 35.7744 56.3815 36.8042 55.2291 37.8356L51.7635 40.9097L48.4526 44.1334C47.3506 45.2068 46.2368 46.2685 45.2104 47.4108C36.7591 56.3106 29.3342 66.0202 23.2615 76.2941C17.3065 86.3729 12.4267 97.0492 8.70222 108.147C1.35287 129.851 -0.755348 151.862 0.225686 171.743C0.0140244 163.559 -0.0212525 151.822 1.49061 140.238ZM238.571 292.174C243.676 288.874 248.592 285.291 253.295 281.441C248.525 285.37 243.623 288.999 238.571 292.174ZM306.13 200.988C305.628 202.501 305.203 203.996 304.648 205.424L303.041 209.663L302.258 211.759L301.396 213.827C300.821 215.22 300.262 216.621 299.721 218.028C296.611 225.775 292.912 233.272 288.656 240.454C284.421 247.636 279.513 254.365 274.268 260.68C271.678 263.87 268.856 266.828 266.081 269.786L261.745 274.024C260.322 275.449 258.765 276.719 257.29 278.063C256.054 279.138 254.807 280.19 253.552 281.224C258.213 277.396 262.642 273.295 266.817 268.941C260.777 275.201 254.207 280.928 247.181 286.056C245.44 287.268 243.759 288.569 241.951 289.711L236.497 293.187L230.735 296.461C228.775 297.549 226.705 298.517 224.63 299.577C226.116 298.701 227.62 297.857 229.141 297.043C230.856 296.091 232.655 294.966 234.412 293.936C236.183 292.926 237.792 291.817 239.129 290.89C240.466 289.963 241.515 289.194 242.061 288.696C241.281 289.225 240.488 289.733 239.699 290.248C240.548 289.688 241.392 289.12 242.23 288.543C242.195 288.582 242.121 288.643 242.061 288.696C260.425 276.155 276.069 259.673 287.791 240.884C299.565 222.112 307.227 200.936 310.402 179.4C309.713 188.038 308.131 194.935 306.13 200.988V200.988ZM280.761 69.8754C285.816 77.5108 290.186 85.5787 293.818 93.9847C294.238 94.9069 294.635 95.8426 295.026 96.7799C303.363 117.197 307.157 139.099 306.6 160.675C306.742 153.535 306.268 146.399 305.477 139.324C304.581 131.17 302.927 123.113 300.733 115.233C296.429 99.4307 289.439 84.4532 280.566 70.7993C281.381 71.9248 282.239 73.1444 283.128 74.4379C284.079 75.7766 284.971 77.1571 285.799 78.5754L284.727 76.7124L283.57 74.8999L281.255 71.2781C279.679 68.886 277.971 66.5812 276.326 64.2361C274.542 61.9952 272.851 59.6804 270.994 57.4983C269.59 55.8974 268.244 54.2427 266.82 52.662C271.846 57.9619 276.565 63.6482 280.761 69.8754V69.8754ZM162.755 1.93548C165.219 2.06651 167.688 2.30673 170.158 2.49151C172.18 2.66118 174.193 2.96019 176.185 3.18529C176.783 3.21049 177.415 3.2508 178.208 3.33984C178.999 3.44903 179.945 3.65229 181.179 3.9345C190.366 5.46653 198.749 7.76961 204.699 10.1483C216.119 14.4705 226.744 19.8477 236.381 26.0582C246.022 32.2568 254.673 39.3071 261.992 47.0076C265.365 50.668 264.381 49.8701 262.521 48.0928L265.313 51.056C264.077 49.823 262.862 48.5732 261.607 47.3671L257.742 43.8562C258.683 44.6793 260.964 46.6498 262.521 48.0928C250.109 35.4284 235.6 24.9125 219.895 17.1768C204.178 9.44442 187.254 4.6686 170.336 2.76197C173.054 3.06434 174.388 3.13153 175.658 3.16513C173.835 2.95179 172.007 2.6595 170.158 2.49151C167.673 2.32857 165.194 2.10682 162.728 1.98588L155.404 1.81285C157.829 1.81117 160.287 1.87836 162.755 1.93548V1.93548Z" fill="url(#paint2_linear_2_2)"/>
<path d="M202.941 78.4856H199.3V81.8444H202.941V78.4856V78.4856ZM198.234 76.3617H204.007C204.597 76.3617 205.073 76.8375 205.073 77.4237V82.9067C205.073 83.4876 204.597 83.9634 204.007 83.9634H198.234C197.644 83.9634 197.168 83.4873 197.168 82.9067V77.4237C197.168 76.8375 197.645 76.3617 198.234 76.3617ZM193.424 78.4856H189.774V81.8444H193.424V78.4856ZM188.708 76.3617H194.479C195.07 76.3617 195.547 76.8375 195.547 77.4237V82.9067C195.547 83.4876 195.071 83.9634 194.479 83.9634H188.708C188.118 83.9634 187.642 83.4873 187.642 82.9067V77.4237C187.642 76.8375 188.118 76.3617 188.708 76.3617ZM183.896 78.4856H180.248V81.8444H183.896V78.4856ZM179.19 76.3617H184.964C185.553 76.3617 186.028 76.8375 186.028 77.4237V82.9067C186.028 83.4876 185.552 83.9634 184.964 83.9634H179.19C178.601 83.9634 178.124 83.4873 178.124 82.9067V77.4237C178.124 76.8375 178.601 76.3617 179.19 76.3617ZM208.513 72.1241H104.132V85.2543H208.513V72.1241H208.513ZM103.068 70H209.579C210.17 70 210.646 70.4742 210.646 71.0605V86.3127C210.646 86.8944 210.17 87.3729 209.579 87.3729H103.068C102.477 87.3729 102 86.8944 102 86.3127V71.0605C102 70.4742 102.477 70 103.068 70ZM166.614 129.157V133.679L188.899 123.992V119.553L166.614 109.931V114.382L182.927 120.731C183.212 120.832 183.453 121.046 183.569 121.34C183.784 121.885 183.516 122.506 182.969 122.722L166.614 129.157ZM164.479 135.303V128.439C164.479 127.976 164.783 127.583 165.201 127.437L179.675 121.738L165.157 116.093C164.741 115.929 164.49 115.527 164.49 115.104L164.479 108.322C164.479 107.736 164.957 107.26 165.547 107.26C165.736 107.26 165.912 107.311 166.067 107.396L190.389 117.888C190.787 118.061 191.031 118.449 191.031 118.859V124.682C191.031 125.149 190.736 125.542 190.32 125.685L165.972 136.27C165.434 136.502 164.81 136.256 164.577 135.72C164.515 135.58 164.49 135.438 164.479 135.303ZM159.03 104.285L150.69 138.831H153.585L161.966 104.285H159.03V104.285ZM148.341 139.549L157.166 102.982C157.278 102.495 157.719 102.166 158.197 102.166H163.319C163.908 102.166 164.38 102.641 164.38 103.228C164.38 103.341 164.368 103.457 164.326 103.561L155.449 140.144C155.327 140.628 154.895 140.95 154.418 140.956H149.346C148.757 140.956 148.28 140.482 148.28 139.894C148.28 139.774 148.297 139.659 148.341 139.549ZM123.751 123.958L146.042 133.605V129.115L129.738 122.662C129.445 122.567 129.201 122.343 129.081 122.033C128.872 121.489 129.141 120.875 129.696 120.668L146.042 114.452V109.893L123.751 119.511V123.958H123.751ZM146.608 136.157L122.267 125.614C121.869 125.441 121.625 125.054 121.625 124.647V118.82C121.625 118.349 121.929 117.947 122.362 117.811L146.685 107.311C147.224 107.084 147.846 107.329 148.08 107.864C148.142 108.003 148.168 108.142 148.168 108.283V115.181C148.168 115.659 147.855 116.061 147.411 116.196L132.999 121.679L147.5 127.419C147.915 127.583 148.168 127.98 148.168 128.404V135.223C148.168 135.807 147.691 136.28 147.1 136.28C146.927 136.28 146.754 136.237 146.608 136.157ZM208.513 92.4453H104.132V150.676H208.513V92.4453H208.513ZM103.068 90.3212H209.579C210.17 90.3212 210.646 90.8006 210.646 91.3833V151.74C210.646 152.321 210.17 152.8 209.579 152.8H103.068C102.477 152.8 102 152.322 102 151.74V91.3833C102 90.8006 102.477 90.3212 103.068 90.3212Z" fill="url(#paint3_linear_2_2)"/>
<path d="M67.0185 211.54C63.9323 211.54 60.0299 210.774 56 208.734L60.0809 200.802C62.0194 202.154 63.6262 202.893 65.7177 202.893C68.1152 202.893 69.11 201.72 69.11 197.665V173.536H78.8277V199.525C78.8277 207.585 73.9817 211.539 67.0185 211.539V211.54ZM101.836 173.536C109.513 173.536 114.206 179.173 114.206 186.059C114.206 193.124 109.513 198.327 101.836 198.327H95.0514V211.029H85.3337V173.536H101.836L101.836 173.536ZM100.153 190.293C103.621 190.293 104.973 188.661 104.973 185.906C104.973 183.305 103.621 181.57 100.153 181.57H95.0514V190.293H100.153ZM141.805 173.536H151.522V211.029H141.805V196.415H127.98V211.029H118.263V173.536H127.98V188.048H141.805V173.536ZM181.393 181.979H168.334V188.1H179.964V196.466H168.334V202.511H181.393V211.03H158.617V173.536H181.393V181.978V181.979ZM204.4 211.54C193.075 211.54 184.939 203.862 184.939 192.283C184.939 180.627 193.076 173 204.4 173C215.75 173 223.886 180.626 223.886 192.283C223.886 203.862 215.75 211.54 204.4 211.54ZM204.4 202.715C210.062 202.715 214.296 198.71 214.296 192.283C214.296 185.855 210.062 181.825 204.4 181.825C198.763 181.825 194.58 185.855 194.58 192.283C194.58 198.71 198.763 202.715 204.4 202.715ZM241.487 211.54C233.274 211.54 226.592 207.586 225.546 200.062L235.621 197.766C235.902 201.847 238.452 203.76 241.895 203.76C244.395 203.76 245.925 202.561 245.925 200.419C245.925 197.613 242.329 196.568 238.146 195.139C232.866 193.379 226.949 191.186 226.949 184.274C226.949 177.285 232.611 173 240.696 173C247.277 173 254.443 175.602 256 183.356L246.665 185.651C246.129 182.259 244.344 180.779 241.334 180.779C238.656 180.779 236.769 181.825 236.769 184.019C236.769 186.11 240.135 186.952 243.987 188.202C249.369 189.987 256 192.436 256 199.858C256 208.096 249.062 211.539 241.488 211.539L241.487 211.54Z" fill="url(#paint4_linear_2_2)"/>
</g>
<defs>
<linearGradient id="paint0_linear_2_2" x1="1.43182" y1="171.626" x2="211.685" y2="171.626" gradientUnits="userSpaceOnUse">
<stop stop-color="#2A3EEE"/>
<stop offset="1" stop-color="#7992EC"/>
</linearGradient>
<linearGradient id="paint1_linear_2_2" x1="77.5543" y1="127.232" x2="299.174" y2="127.232" gradientUnits="userSpaceOnUse">
<stop stop-color="#2A3EEE"/>
<stop offset="1" stop-color="#7992EC"/>
</linearGradient>
<linearGradient id="paint2_linear_2_2" x1="0" y1="0" x2="312.5" y2="0" gradientUnits="userSpaceOnUse">
<stop stop-color="#2A3EEE"/>
<stop offset="1" stop-color="#7992EC"/>
</linearGradient>
<linearGradient id="paint3_linear_2_2" x1="102" y1="70" x2="210.646" y2="70" gradientUnits="userSpaceOnUse">
<stop stop-color="#2A3EEE"/>
<stop offset="1" stop-color="#7992EC"/>
</linearGradient>
<linearGradient id="paint4_linear_2_2" x1="56" y1="173" x2="256" y2="173" gradientUnits="userSpaceOnUse">
<stop stop-color="#2A3EEE"/>
<stop offset="1" stop-color="#7992EC"/>
</linearGradient>
<clipPath id="clip0_2_2">
<rect width="312.5" height="317.625" fill="white"/>
</clipPath>
</defs>
</svg>
